<?xml version="1.0" encoding="utf-8"?>
<?xml-stylesheet type="text/xsl" href="rss1.xsl"?>
<rss version="2.0" xmlns:atom="http://www.w3.org/2005/Atom" xmlns:content="http://purl.org/rss/1.0/modules/content/" xmlns:dc="http://purl.org/dc/elements/1.1/" xmlns:media="http://search.yahoo.com/mrss/">
<channel>
 <title>Getty</title>
 <link>http://www.gettyimg.com/</link>
 <atom:link href="http://www.gettyimg.com/" rel="self" type="application/rss+xml" />

 
                <item>
                <title><![CDATA[【Apple Music】PACK - Girls Aloud - Can't Speak French APPLE MUSIC 1824p AAC2.0 4K H.265 (+H.264 ver.)]]></title>
                <link><![CDATA[https://sharemania.us/threads/girls-aloud-cant-speak-french-apple-music-1824p-aac2-0-4k-h-265-h-264-ver.242846/]]></link>
                <description><![CDATA[<article>
<blockquote class="messageText SelectQuoteContainer ugc baseHtml">
<div style="text-align: center"><img src="https://i.ibb.co/D7zvKJ5/Girls-Aloud-Can-t-Speak-French-APPLE-MUSIC-1824p-AAC2-0-4-K-H-265-mp4.png" class="bbCodeImage LbImage" alt="[​IMG]" data-url="https://i.ibb.co/D7zvKJ5/Girls-Aloud-Can-t-Speak-French-APPLE-MUSIC-1824p-AAC2-0-4-K-H-265-mp4.png" style=""><br>
<img src="https://i.ibb.co/ZBMfSbw/Girls-Aloud-Can-t-Speak-French-APPLE-MUSIC-912p-AAC-LC-H-264-mp4.png" class="bbCodeImage LbImage" alt="[​IMG]" data-url="https://i.ibb.co/ZBMfSbw/Girls-Aloud-Can-t-Speak-French-APPLE-MUSIC-912p-AAC-LC-H-264-mp4.png" style=""><br>
<div class="bbCodeBlock bbCodeVfcHH HiddenContent">
<div class="attribution type">Hidden Content:</div>
<blockquote>You must either reply or click 'Like' to see the hidden information contained here.</blockquote>
</div></div>
<div class="messageTextEndMarker">&nbsp;</div>
</blockquote>
</article>]]></description>
                <author><![CDATA[DarlingBeMyValentine]]></author>
                </item>

                
                <item>
                <title><![CDATA[【Apple Music】PACK - Girls Aloud - Sexy! No No No... APPLE MUSIC 2160p AAC2.0 4K H.265 (+H.264 ver.)]]></title>
                <link><![CDATA[https://sharemania.us/threads/girls-aloud-sexy-no-no-no-apple-music-2160p-aac2-0-4k-h-265-h-264-ver.242848/]]></link>
                <description><![CDATA[<article>
<blockquote class="messageText SelectQuoteContainer ugc baseHtml">
<div style="text-align: center"><img src="https://i.ibb.co/y62jhqw/Girls-Aloud-Sexy-No-No-No-APPLE-MUSIC-2160p-AAC2-0-4-K-H-265-mp4.png" class="bbCodeImage LbImage" alt="[​IMG]" data-url="https://i.ibb.co/y62jhqw/Girls-Aloud-Sexy-No-No-No-APPLE-MUSIC-2160p-AAC2-0-4-K-H-265-mp4.png" style=""><br>
<img src="https://i.ibb.co/MGB7Xqr/Girls-Aloud-Sexy-No-No-No-APPLE-MUSIC-1080p-AAC-LC-H-264-mp4.png" class="bbCodeImage LbImage" alt="[​IMG]" data-url="https://i.ibb.co/MGB7Xqr/Girls-Aloud-Sexy-No-No-No-APPLE-MUSIC-1080p-AAC-LC-H-264-mp4.png" style=""><br>
<div class="bbCodeBlock bbCodeVfcHH HiddenContent">
<div class="attribution type">Hidden Content:</div>
<blockquote>You must either reply or click 'Like' to see the hidden information contained here.</blockquote>
</div></div>
<div class="messageTextEndMarker">&nbsp;</div>
</blockquote>
</article>]]></description>
                <author><![CDATA[DarlingBeMyValentine]]></author>
                </item>

                
                <item>
                <title><![CDATA[【Apple Music】WEB-RiP - J Balvin - Amigos [Apple HD Music Video]]]></title>
                <link><![CDATA[https://sharemania.us/threads/j-balvin-amigos-apple-hd-music-video.242849/]]></link>
                <description><![CDATA[<article>
<blockquote class="messageText SelectQuoteContainer ugc baseHtml">
<span style="font-size: 22px"><b>J Balvin - Amigos [Apple HD Music Video]</b></span><br>
<br>
<img src="https://imgur.com/13uyyLs.jpg" class="bbCodeImage LbImage" alt="[​IMG]" data-url="https://imgur.com/13uyyLs.jpg" style=""><br>
<br>
<div class="bbCodeBlock bbCodeCode">
<div class="type">Code:</div>
<pre>General
Format                         : MPEG-4
Codec ID                       : M4V  (isom/iso4/M4V /mp42)
File size                      : 168 MiB
Duration                       : 3 min 20 s
Overall bit rate mode          : Variable
Overall bit rate               : 7 027 kb/s
Movie name                     : Amigos
Performer                      : J Balvin
Genre                          : Latin
ContentType                    : Music Video
Recorded date                  : UTC 2023-12-08 08:00:00
Encoded date                   : UTC 2024-04-22 20:45:43
Tagged date                    : UTC 2024-04-22 20:45:43
Copyright                      : ℗ Universal Music Latino; © 2023 Sueños Globales, LLC, Exclusively Licensed To UMG Recordings Inc
Cover                          : Yes
Rating                         : Explicit
GenreID                        : 1612
AppleStoreCountry              : United Kingdom
AlbumTitleID                   : 444520760
AppleStoreCatalogID            : 1720089520

Video
ID                             : 2
Format                         : AVC
Format/Info                    : Advanced Video Codec
Format profile                 : High@L4
Format settings                : CABAC / 5 Ref Frames
Format settings, CABAC         : Yes
Format settings, Reference fra : 5 frames
Codec ID                       : avc1
Codec ID/Info                  : Advanced Video Coding
Duration                       : 3 min 20 s
Duration_FirstFrame            : 42 ms
Bit rate                       : 6 762 kb/s
Maximum bit rate               : 16.8 Mb/s
Width                          : 1 920 pixels
Height                         : 802 pixels
Display aspect ratio           : 2.40:1
Frame rate mode                : Constant
Frame rate                     : 23.976 (24000/1001) FPS
Color space                    : YUV
Chroma subsampling             : 4:2:0
Bit depth                      : 8 bits
Scan type                      : Progressive
Bits/(Pixel*Frame)             : 0.183
Stream size                    : 161 MiB (96%)
Title                          : Core Media Video
Language                       : English
Encoded date                   : UTC 2024-02-17 04:52:07
Tagged date                    : UTC 2024-04-22 20:45:43
Color range                    : Limited
Color primaries                : BT.709
Transfer characteristics       : BT.709
Matrix coefficients            : BT.709
Codec configuration box        : avcC

Audio
ID                             : 1
Format                         : AAC LC
Format/Info                    : Advanced Audio Codec Low Complexity
Codec ID                       : mp4a-40-2
Duration                       : 3 min 20 s
Duration_LastFrame             : -3 ms
Bit rate mode                  : Variable
Bit rate                       : 252 kb/s
Maximum bit rate               : 306 kb/s
Channel(s)                     : 2 channels
Channel layout                 : L R
Sampling rate                  : 48.0 kHz
Frame rate                     : 46.875 FPS (1024 SPF)
Compression mode               : Lossy
Stream size                    : 6.01 MiB (4%)
Title                          : Core Media Audio
Encoded date                   : UTC 2024-02-17 04:51:47
Tagged date                    : UTC 2024-04-22 20:45:43

Text
ID                             : 3
Format                         : EIA-608
Codec ID                       : c608
Duration                       : 3 min 12 s
Bit rate mode                  : Variable
Bit rate                       : 146 b/s
Maximum bit rate               : 832 b/s
Frame rate                     : 0.338 FPS
Stream size                    : 3.42 KiB (0%)
Title                          : Core Media Closed Caption
Language                       : English
Forced                         : No
Encoded date                   : UTC 2024-02-17 04:52:07
Tagged date                    : UTC 2024-04-22 20:45:43
</pre>
</div>
<div class="bbCodeBlock bbCodeVfcHH HiddenContent">
<div class="attribution type">Hidden Content:</div>
<blockquote>You must reply before you can see the hidden data contained here.</blockquote>
</div>
<div class="messageTextEndMarker">&nbsp;</div>
</blockquote>
</article>]]></description>
                <author><![CDATA[Mu$iC @$YLUM]]></author>
                </item>

                </channel></rss>